<?xml version="1.0" encoding="UTF-8"?>
<svg version="1.1" xmlns="http://www.w3.org/2000/svg" width="512" height="512">
<path d="M0 0 C4.26284604 1.42568589 8.34418096 3.19979288 12.4390564 5.04141235 C15.87397232 6.58160379 19.33567613 8.05910454 22.796875 9.5390625 C23.49366867 9.83788834 24.19046234 10.13671417 24.90837097 10.44459534 C74.68615765 31.64693981 129.4230595 40.99782482 183 46 C184.27907227 46.12004395 185.55814453 46.24008789 186.87597656 46.36376953 C240.42015765 51.11240098 294.96845558 48.45321939 348 40 C349.21349121 39.80680176 350.42698242 39.61360352 351.67724609 39.41455078 C390.88565452 32.98957376 430.49509944 22.59966782 466.83984375 6.43359375 C467.78214844 6.0159375 468.72445313 5.59828125 469.6953125 5.16796875 C471.45953039 4.37633252 473.21680113 3.5689279 474.96484375 2.7421875 C480.30773433 0.3222744 485.11008676 -0.98351918 491 0 C493.87029869 1.79393668 495.49131638 2.98263276 497 6 C498.53808122 16.25387477 492.66187022 23.91330433 486.921875 31.88671875 C442.74447258 87.92657182 364.54923564 107.28962827 297.0390625 115.78515625 C292.69886972 116.28275797 288.35741434 116.68897608 284 117 C282.96415771 117.08467529 281.92831543 117.16935059 280.86108398 117.2565918 C268.94460642 118.13538808 257.03986703 118.18613023 245.0949707 118.18530273 C241.60029677 118.18747649 238.10594605 118.20566102 234.61132812 118.22460938 C214.39372266 118.27572353 194.34798852 116.9899458 174.3125 114.25 C173.07322754 114.08081055 171.83395508 113.91162109 170.55712891 113.73730469 C118.17225812 106.30186229 58.81765027 90.86122131 18 55 C17.175 54.28328125 16.35 53.5665625 15.5 52.828125 C12.96517319 50.58696715 10.47414826 48.30788549 8 46 C7.22527344 45.27941406 6.45054688 44.55882812 5.65234375 43.81640625 C-0.00779072 38.36986176 -4.60739638 32.50142172 -9 26 C-9.60457031 25.15179688 -10.20914062 24.30359375 -10.83203125 23.4296875 C-14.23420928 18.34633954 -15.85727139 14.38061511 -15.46875 8.203125 C-14.78656709 4.99686533 -13.39564037 3.18426034 -11 1 C-7.4109309 -0.79453455 -3.86638682 -0.5494796 0 0 Z " fill="#ffffff" transform="translate(15,293)"/>
<path d="M0 0 C16.26136559 12.58356141 24.04071506 33.60155781 27.33984375 53.3046875 C30.7664421 80.96443632 26.164275 109.93886336 8.83984375 132.4296875 C0.56233838 142.03775634 -9.21803366 148.42124435 -21.94921875 149.9921875 C-34.23520383 150.5001352 -43.95563838 145.40267836 -53.1875 137.72265625 C-59.79086679 131.63852856 -63.90959205 124.53058422 -67.91015625 116.6171875 C-68.6371875 115.18246094 -68.6371875 115.18246094 -69.37890625 113.71875 C-79.81646065 90.99797608 -80.81738594 60.23129522 -72.91015625 36.6171875 C-72.69053223 35.95348145 -72.4709082 35.28977539 -72.24462891 34.60595703 C-66.06391651 16.54497934 -55.95814153 2.20872047 -38.734375 -6.48046875 C-25.11591785 -11.99453332 -11.43965574 -8.08214694 0 0 Z " fill="#ffffff" transform="translate(404.91015625,109.3828125)"/>
<path d="M0 0 C14.37479508 11.09381475 22.50772003 28.18579522 26.4375 45.5625 C26.70240234 46.73147827 26.70240234 46.73147827 26.97265625 47.92407227 C28.5671636 55.66241576 28.82302393 63.23957017 28.8125 71.125 C28.81228851 71.7831369 28.81207703 72.4412738 28.81185913 73.11935425 C28.76089524 89.0531791 26.01635676 102.97291765 19.4375 117.5625 C19.01984375 118.49320312 18.6021875 119.42390625 18.171875 120.3828125 C11.80566109 133.22500263 1.38068194 143.43800392 -11.875 148.9375 C-22.13165808 152.33733931 -31.85937929 151.10520771 -41.5625 146.5625 C-59.10813027 136.45830913 -68.33492005 118.31699879 -73.59765625 99.4140625 C-80.17871804 73.14310328 -77.66123752 42.20051913 -63.75 18.5625 C-56.54763922 7.71112531 -47.19006124 -3.31232779 -34.16796875 -7 C-21.32356586 -9.15678129 -10.77766216 -7.12983805 0 0 Z " fill="#ffffff" transform="translate(155.5625,108.4375)"/>
</svg>
